<mxfile host="app.diagrams.net" agent="Mozilla/5.0 (Windows NT 10.0; Win64; x64) AppleWebKit/537.36 (KHTML, like Gecko) Chrome/132.0.0.0 Safari/537.36 OPR/117.0.0.0" version="26.2.12">
  <diagram name="Página-1" id="8loe4KsNV_EKxlekJNdM">
    <mxGraphModel dx="1144" dy="658" grid="1" gridSize="10" guides="1" tooltips="1" connect="1" arrows="1" fold="1" page="1" pageScale="1" pageWidth="827" pageHeight="1169" math="0" shadow="0">
      <root>
        <mxCell id="0" />
        <mxCell id="1" parent="0" />
        <mxCell id="8TDIL2olZ708_3ujhwu4-3" style="edgeStyle=orthogonalEdgeStyle;rounded=0;orthogonalLoop=1;jettySize=auto;html=1;entryX=0.5;entryY=1;entryDx=0;entryDy=0;" edge="1" parent="1" source="cfNvjKSxgFuLiAWqWSHC-1" target="cfNvjKSxgFuLiAWqWSHC-2">
          <mxGeometry relative="1" as="geometry" />
        </mxCell>
        <mxCell id="8TDIL2olZ708_3ujhwu4-4" value="Informa o usuário da notificação&lt;br&gt;avisada pelo Timer" style="edgeLabel;html=1;align=center;verticalAlign=middle;resizable=0;points=[];" vertex="1" connectable="0" parent="8TDIL2olZ708_3ujhwu4-3">
          <mxGeometry x="-0.2254" y="1" relative="1" as="geometry">
            <mxPoint as="offset" />
          </mxGeometry>
        </mxCell>
        <mxCell id="8TDIL2olZ708_3ujhwu4-9" style="edgeStyle=orthogonalEdgeStyle;rounded=0;orthogonalLoop=1;jettySize=auto;html=1;" edge="1" parent="1" source="cfNvjKSxgFuLiAWqWSHC-1" target="cfNvjKSxgFuLiAWqWSHC-5">
          <mxGeometry relative="1" as="geometry" />
        </mxCell>
        <mxCell id="8TDIL2olZ708_3ujhwu4-11" value="Registra usando de&lt;br&gt;Serialização" style="edgeLabel;html=1;align=center;verticalAlign=middle;resizable=0;points=[];" vertex="1" connectable="0" parent="8TDIL2olZ708_3ujhwu4-9">
          <mxGeometry x="-0.1151" y="1" relative="1" as="geometry">
            <mxPoint as="offset" />
          </mxGeometry>
        </mxCell>
        <mxCell id="8TDIL2olZ708_3ujhwu4-27" style="edgeStyle=orthogonalEdgeStyle;rounded=0;orthogonalLoop=1;jettySize=auto;html=1;" edge="1" parent="1" source="cfNvjKSxgFuLiAWqWSHC-1" target="cfNvjKSxgFuLiAWqWSHC-3">
          <mxGeometry relative="1" as="geometry" />
        </mxCell>
        <mxCell id="8TDIL2olZ708_3ujhwu4-28" value="Registra usando de&lt;br&gt;Serialização" style="edgeLabel;html=1;align=center;verticalAlign=middle;resizable=0;points=[];" vertex="1" connectable="0" parent="8TDIL2olZ708_3ujhwu4-27">
          <mxGeometry x="-0.1688" y="1" relative="1" as="geometry">
            <mxPoint as="offset" />
          </mxGeometry>
        </mxCell>
        <mxCell id="cfNvjKSxgFuLiAWqWSHC-1" value="Sistema" style="rounded=0;whiteSpace=wrap;html=1;" parent="1" vertex="1">
          <mxGeometry x="354" y="280" width="120" height="60" as="geometry" />
        </mxCell>
        <mxCell id="8TDIL2olZ708_3ujhwu4-5" style="edgeStyle=orthogonalEdgeStyle;rounded=0;orthogonalLoop=1;jettySize=auto;html=1;entryX=0.5;entryY=0;entryDx=0;entryDy=0;" edge="1" parent="1" source="cfNvjKSxgFuLiAWqWSHC-2" target="cfNvjKSxgFuLiAWqWSHC-5">
          <mxGeometry relative="1" as="geometry" />
        </mxCell>
        <mxCell id="8TDIL2olZ708_3ujhwu4-6" value="Simula" style="edgeLabel;html=1;align=center;verticalAlign=middle;resizable=0;points=[];" vertex="1" connectable="0" parent="8TDIL2olZ708_3ujhwu4-5">
          <mxGeometry x="-0.5281" y="3" relative="1" as="geometry">
            <mxPoint as="offset" />
          </mxGeometry>
        </mxCell>
        <mxCell id="cfNvjKSxgFuLiAWqWSHC-2" value="Usuário" style="rounded=0;whiteSpace=wrap;html=1;" parent="1" vertex="1">
          <mxGeometry x="354" y="80" width="120" height="60" as="geometry" />
        </mxCell>
        <mxCell id="cfNvjKSxgFuLiAWqWSHC-3" value="Calendário" style="rounded=0;whiteSpace=wrap;html=1;" parent="1" vertex="1">
          <mxGeometry x="354" y="525" width="120" height="60" as="geometry" />
        </mxCell>
        <mxCell id="8TDIL2olZ708_3ujhwu4-1" style="edgeStyle=orthogonalEdgeStyle;rounded=0;orthogonalLoop=1;jettySize=auto;html=1;entryX=0;entryY=0.5;entryDx=0;entryDy=0;" edge="1" parent="1" source="cfNvjKSxgFuLiAWqWSHC-4" target="cfNvjKSxgFuLiAWqWSHC-1">
          <mxGeometry relative="1" as="geometry" />
        </mxCell>
        <mxCell id="8TDIL2olZ708_3ujhwu4-2" value="Informa o sistema&lt;br&gt;em horário de notificação" style="edgeLabel;html=1;align=center;verticalAlign=middle;resizable=0;points=[];" vertex="1" connectable="0" parent="8TDIL2olZ708_3ujhwu4-1">
          <mxGeometry x="-0.0851" y="3" relative="1" as="geometry">
            <mxPoint as="offset" />
          </mxGeometry>
        </mxCell>
        <mxCell id="cfNvjKSxgFuLiAWqWSHC-4" value="Timer" style="rounded=0;whiteSpace=wrap;html=1;" parent="1" vertex="1">
          <mxGeometry x="80" y="280" width="120" height="60" as="geometry" />
        </mxCell>
        <mxCell id="cfNvjKSxgFuLiAWqWSHC-5" value="Contas" style="rounded=0;whiteSpace=wrap;html=1;" parent="1" vertex="1">
          <mxGeometry x="640" y="280" width="120" height="60" as="geometry" />
        </mxCell>
        <mxCell id="8TDIL2olZ708_3ujhwu4-23" value="" style="endArrow=none;html=1;rounded=0;" edge="1" parent="1">
          <mxGeometry width="50" height="50" relative="1" as="geometry">
            <mxPoint x="50" y="100" as="sourcePoint" />
            <mxPoint x="354" y="100" as="targetPoint" />
          </mxGeometry>
        </mxCell>
        <mxCell id="8TDIL2olZ708_3ujhwu4-24" value="" style="endArrow=none;html=1;rounded=0;" edge="1" parent="1">
          <mxGeometry width="50" height="50" relative="1" as="geometry">
            <mxPoint x="50" y="560" as="sourcePoint" />
            <mxPoint x="50" y="100" as="targetPoint" />
          </mxGeometry>
        </mxCell>
        <mxCell id="8TDIL2olZ708_3ujhwu4-25" value="" style="endArrow=classic;html=1;rounded=0;" edge="1" parent="1">
          <mxGeometry width="50" height="50" relative="1" as="geometry">
            <mxPoint x="50" y="560" as="sourcePoint" />
            <mxPoint x="350" y="560" as="targetPoint" />
          </mxGeometry>
        </mxCell>
        <mxCell id="8TDIL2olZ708_3ujhwu4-26" value="Insere atividades" style="edgeLabel;html=1;align=center;verticalAlign=middle;resizable=0;points=[];" vertex="1" connectable="0" parent="8TDIL2olZ708_3ujhwu4-25">
          <mxGeometry x="-0.1037" y="-1" relative="1" as="geometry">
            <mxPoint as="offset" />
          </mxGeometry>
        </mxCell>
      </root>
    </mxGraphModel>
  </diagram>
</mxfile>
